HIERARCHY
ROOT root
{
	OFFSET 0.000000 0.000000 0.000000
	CHANNELS 6 Xposition Yposition Zposition Zrotation Yrotation Xrotation
	JOINT lhip
	{
		OFFSET 0.058581 -0.082280 -0.017664
		CHANNELS 3 Zrotation Yrotation Xrotation
		JOINT lknee
		{
			OFFSET 0.043451 -0.386469 0.008037
			CHANNELS 3 Zrotation Yrotation Xrotation
			JOINT lankle
			{
				OFFSET -0.014790 -0.426874 -0.037428
				CHANNELS 3 Zrotation Yrotation Xrotation
				JOINT ltoe
				{
					OFFSET 0.041054 -0.060286 0.122042
					CHANNELS 3 Zrotation Yrotation Xrotation
					End Site
					{
						OFFSET 0.000000 0.000000 0.000000
					}
				}
			}
		}
	}
	JOINT rhip
	{
		OFFSET -0.060310 -0.090513 -0.013543
		CHANNELS 3 Zrotation Yrotation Xrotation
		JOINT rknee
		{
			OFFSET -0.043257 -0.383688 -0.004843
			CHANNELS 3 Zrotation Yrotation Xrotation
			JOINT rankle
			{
				OFFSET 0.019056 -0.420046 -0.034562
				CHANNELS 3 Zrotation Yrotation Xrotation
				JOINT rtoe
				{
					OFFSET -0.034840 -0.062106 0.130323
					CHANNELS 3 Zrotation Yrotation Xrotation
					End Site
					{
						OFFSET 0.000000 0.000000 0.000000
					}
				}
			}
		}
	}
	JOINT lowerback
	{
		OFFSET 0.004439 0.124404 -0.038385
		CHANNELS 3 Zrotation Yrotation Xrotation
		JOINT upperback
		{
			OFFSET 0.004488 0.137956 0.026820
			CHANNELS 3 Zrotation Yrotation Xrotation
			JOINT chest
			{
				OFFSET -0.002265 0.056032 0.002855
				CHANNELS 3 Zrotation Yrotation Xrotation
				JOINT lowerneck
				{
					OFFSET -0.013390 0.211636 -0.033468
					CHANNELS 3 Zrotation Yrotation Xrotation
					JOINT upperneck
					{
						OFFSET 0.010113 0.088937 0.050410
						CHANNELS 3 Zrotation Yrotation Xrotation
						End Site
						{
							OFFSET 0.000000 0.000000 0.000000
						}
					}
				}
				JOINT lclavicle
				{
					OFFSET 0.071702 0.114000 -0.018898
					CHANNELS 3 Zrotation Yrotation Xrotation
					JOINT lshoulder
					{
						OFFSET 0.122921 0.045205 -0.019046
						CHANNELS 3 Zrotation Yrotation Xrotation
						JOINT lelbow
						{
							OFFSET 0.255332 -0.015649 -0.022946
							CHANNELS 3 Zrotation Yrotation Xrotation
							JOINT lwrist
							{
								OFFSET 0.265709 0.012698 -0.007375
								CHANNELS 3 Zrotation Yrotation Xrotation
								End Site
								{
									OFFSET 0.000000 0.000000 0.000000
								}
							}
						}
					}
				}
				JOINT rclavicle
				{
					OFFSET -0.082954 0.112472 -0.023707
					CHANNELS 3 Zrotation Yrotation Xrotation
					JOINT rshoulder
					{
						OFFSET -0.113228 0.046853 -0.008472
						CHANNELS 3 Zrotation Yrotation Xrotation
						JOINT relbow
						{
							OFFSET -0.260127 -0.014369 -0.031269
							CHANNELS 3 Zrotation Yrotation Xrotation
							JOINT rwrist
							{
								OFFSET -0.269108 0.006794 -0.006027
								CHANNELS 3 Zrotation Yrotation Xrotation
								End Site
								{
									OFFSET 0.000000 0.000000 0.000000
								}
							}
						}
					}
				}
			}
		}
	}
}
MOTION
Frames: 10
Frame Time: 0.033333
-1.401892 1.157446 1.008692 45.557848 -1.908618 89.252516 3.342741 3.655665 3.042603 -2.367392 -4.464349 1.071414 0.454398 11.354946 -10.706630 0.000000 -0.000000 0.000000 -7.428916 -6.690110 -3.097784 -1.608725 -4.379130 9.839407 6.374080 -10.237650 -8.076558 0.000000 -0.000000 0.000000 -0.558551 2.386243 7.520598 0.984295 -1.815854 0.858335 0.858359 -0.759579 -5.286845 -2.739264 7.301872 -10.426890 -1.972356 6.766961 14.031199 -28.953979 2.353625 -3.304604 -56.009113 -3.140494 13.023021 10.874708 -27.861456 0.184923 -0.474491 -11.131161 -2.095299 29.954563 0.424512 0.647791 43.705942 -1.236907 17.746882 -2.529524 36.717949 7.696431 4.590823 8.359219 7.866923 
-1.401671 1.157242 1.008319 45.784927 -1.923780 89.240351 3.401126 3.698979 2.962210 -2.598089 -4.174313 0.998673 0.452126 11.396960 -10.635505 0.000000 -0.000000 0.000000 -7.506200 -6.664523 -2.952908 -1.489802 -4.593023 9.706571 6.246763 -10.287485 -7.882042 0.000000 -0.000000 0.000000 -0.704654 2.468364 7.389116 0.995111 -1.886096 1.180366 0.839691 -0.868959 -5.338427 -2.468397 7.342474 -10.226888 -1.801171 6.543685 13.359579 -28.961074 2.530051 -2.736122 -56.208524 -3.455330 12.813603 11.257076 -28.010661 0.423813 -1.175192 -11.586266 -2.033542 30.012648 0.419555 1.159324 44.094172 -1.230755 17.350493 -3.427053 36.576922 7.196941 4.479571 8.079632 7.407737 
-1.401463 1.157051 1.007746 45.795885 -1.867094 89.165142 3.496994 3.719125 3.066340 -2.725613 -3.833718 0.750312 0.421313 11.387081 -10.479039 0.000000 -0.000000 0.000000 -7.477857 -6.745650 -2.936999 -1.531544 -4.697899 9.752680 6.263508 -10.060720 -7.935523 0.000000 -0.000000 0.000000 -0.563764 2.429840 7.415075 0.876080 -1.919983 1.334049 0.676669 -0.991897 -5.101267 -2.331884 7.374082 -9.986090 -1.798734 6.165944 12.308423 -28.933078 2.583117 -2.445213 -56.332600 -3.485161 12.490053 11.633003 -28.131415 0.082417 -1.072171 -11.502364 -1.992828 30.012324 0.614562 1.345103 44.693961 -1.005501 16.973083 -4.273262 35.943303 6.667517 3.784273 7.744849 7.602130 
-1.400966 1.156038 1.007600 45.948848 -1.897822 89.009932 3.434478 3.707977 3.159588 -2.475497 -4.472613 1.139589 0.497376 10.953863 -10.770543 0.000000 -0.000000 0.000000 -7.533686 -6.734039 -2.632603 -1.543267 -4.869829 9.561557 6.304713 -9.908591 -8.038035 0.000000 -0.000000 0.000000 -0.656736 2.358404 7.191223 0.817715 -2.161150 1.964083 0.502152 -0.964585 -5.125690 -2.646216 6.659992 -8.481648 -1.377923 4.905921 9.376857 -28.536285 2.524099 -2.252300 -56.785329 -3.660793 12.095903 12.279017 -27.391418 -1.335251 -2.858839 -11.369178 -1.876105 29.842618 1.217171 1.436982 46.025011 -1.168349 16.535241 -5.678766 34.638242 4.850323 4.612693 7.772810 7.092137 
-1.400264 1.155545 1.007261 45.940722 -1.955125 88.920721 3.403234 4.066119 3.215894 -2.660087 -3.960741 0.903536 0.353437 11.069769 -10.661554 0.000000 -0.000000 0.000000 -7.657746 -6.800912 -2.475054 -1.533697 -4.874710 9.502828 6.186666 -9.790696 -7.732660 0.000000 -0.000000 0.000000 -0.566619 2.267689 7.134927 0.615374 -2.232703 2.046742 0.428401 -0.871832 -5.011887 -2.426823 6.385129 -8.355998 -1.163485 5.221126 9.110473 -28.602834 2.312611 -1.942279 -56.868497 -3.443997 12.291487 12.681588 -26.906218 -1.138995 -1.377262 -11.354599 -2.227185 29.762642 1.352049 2.067202 46.723989 -0.604152 16.081529 -5.215474 34.016225 3.150008 1.554967 8.426021 4.250927 
-1.400520 1.154589 1.007424 45.903796 -2.015897 88.921146 3.372069 3.700986 3.259678 -2.609783 -4.418735 1.109450 0.778629 10.886196 -10.820320 0.000000 -0.000000 0.000000 -7.630066 -6.654915 -2.534588 -1.552006 -4.963807 9.501554 6.311124 -9.990382 -8.174598 0.000000 -0.000000 0.000000 -0.840312 2.255725 7.053010 0.573215 -2.302460 2.068340 0.400807 -0.701291 -4.919997 -2.114378 6.630610 -7.806609 -0.945769 5.219841 8.265312 -28.486994 2.041944 -1.865133 -56.628886 -3.711247 11.828999 12.552623 -25.483040 -1.699014 -3.585850 -11.360954 -1.801249 29.362524 1.606985 2.109121 48.039029 -1.273112 15.843161 -7.761197 32.573111 2.437771 4.143777 7.011817 5.373004 
-1.399942 1.153516 1.007322 45.763904 -1.951857 88.925637 3.441187 3.693108 3.341165 -2.588689 -4.333010 0.773714 0.650413 11.094953 -11.063957 0.000000 -0.000000 0.000000 -7.512657 -6.602210 -2.511982 -1.547182 -4.816824 9.446833 6.375642 -10.065686 -8.295824 0.000000 -0.000000 0.000000 -0.835799 2.278063 6.743021 0.495064 -2.206070 2.228763 0.330420 -0.714164 -4.757795 -1.825557 6.784694 -7.714219 -0.852424 5.139035 8.341008 -28.469577 2.131070 -1.724953 -56.585145 -3.882822 11.679693 12.488691 -24.459202 -1.971599 -3.394911 -10.870428 -1.550325 29.349283 1.516197 2.206465 48.603591 -1.285469 15.691097 -7.854838 31.714280 1.878886 3.230374 6.450306 5.182807 
-1.399604 1.153093 1.007337 45.567250 -1.980962 88.806228 3.407429 3.625418 3.401259 -2.666707 -3.970852 1.047865 0.997472 11.176976 -10.907414 0.000000 -0.000000 0.000000 -7.521895 -6.562633 -2.452968 -1.580235 -4.691697 9.505552 6.406998 -10.021553 -8.077995 0.000000 -0.000000 0.000000 -0.859093 2.397130 6.855029 0.442634 -2.177322 2.332041 0.258295 -0.677483 -4.804189 -2.010521 6.673730 -7.543549 -0.823020 5.031030 8.223119 -28.397847 2.287392 -1.846343 -56.769864 -3.764978 11.449987 12.761175 -23.616192 -2.637098 -3.689995 -10.405790 -1.149140 29.318021 1.369990 2.247025 48.931717 -1.567755 15.663191 -7.823749 31.481293 1.783614 3.566665 6.191740 5.447741 
-1.399017 1.152485 1.007332 45.414089 -2.028796 88.790804 3.329442 3.673064 3.518496 -2.628243 -3.948835 0.912922 0.799328 11.213449 -10.728121 0.000000 -0.000000 0.000000 -7.601958 -6.539218 -2.439726 -1.595297 -4.745763 9.510467 6.325144 -9.872577 -7.958685 0.000000 -0.000000 0.000000 -0.911178 2.430075 6.754703 0.420920 -2.098927 2.518850 0.227768 -0.604848 -4.650187 -2.717919 5.963108 -7.156897 -1.003905 3.702121 6.805229 -28.416882 2.654715 -2.207056 -56.882551 -3.849692 11.356934 13.083477 -22.915245 -3.150950 -4.207437 -10.345542 -1.105873 29.391038 1.198959 2.097988 48.960515 -1.969634 15.587625 -7.706619 31.653501 1.856151 3.440210 6.473003 5.917769 
-1.398784 1.152463 1.007401 45.348969 -1.983204 88.890812 3.316550 3.624874 3.509185 -2.376188 -4.240535 0.696570 0.758916 11.239044 -11.293114 0.000000 -0.000000 0.000000 -7.535843 -6.322391 -2.499031 -1.598318 -4.717823 9.533882 6.455339 -9.986778 -8.131488 0.000000 -0.000000 0.000000 -0.860001 2.224679 6.504915 0.366358 -2.063343 2.852929 0.214006 -0.609492 -4.675363 -2.904089 6.253080 -7.349205 -1.121598 3.722506 6.543414 -28.392467 3.026412 -2.368284 -56.974595 -3.415231 11.131659 13.533976 -22.650847 -3.520219 -4.560150 -10.535353 -0.985237 29.447003 1.074854 2.111259 48.986847 -2.455193 15.634110 -7.653397 31.586557 2.291507 2.943872 6.344552 6.266980 
